<?xml version="1.0" encoding="utf-8"?>
<!-- Generator: Adobe Illustrator 16.0.0, SVG Export Plug-In . SVG Version: 6.00 Build 0)  -->
<!DOCTYPE svg PUBLIC "-//W3C//DTD SVG 1.0//EN" "http://www.w3.org/TR/2001/REC-SVG-20010904/DTD/svg10.dtd">
<svg version="1.0" id="Layer_1" xmlns="http://www.w3.org/2000/svg" xmlns:xlink="http://www.w3.org/1999/xlink" x="0px" y="0px"
	 width="100px" height="100px" viewBox="0 0 100 100" enable-background="new 0 0 100 100" xml:space="preserve">
<path d="M66.403,29.362C68.181,18.711,60.798,10,50,10l0,0c-10.794,0-18.177,8.711-16.403,19.362l2.686,16.133
	c1.068,6.393,7.24,11.621,13.718,11.621l0,0c6.481,0,12.649-5.229,13.714-11.621L66.403,29.362z"/>
<path d="M64.007,58.001c-3.76,3.535-8.736,5.781-14.007,5.781s-10.247-2.246-14.007-5.781l-19.668,6.557
	C12.845,65.716,10,69.668,10,73.333V90h80V73.333c0-3.665-2.845-7.617-6.325-8.775L64.007,58.001z"/>
</svg>
