<?xml version="1.0" encoding="utf-8"?>
<!-- Generator: Adobe Illustrator 19.0.1, SVG Export Plug-In . SVG Version: 6.00 Build 0)  -->
<svg version="1.1" id="SEO" xmlns="http://www.w3.org/2000/svg" xmlns:xlink="http://www.w3.org/1999/xlink" x="0px" y="0px"
	 viewBox="0 0 128 128" style="enable-background:new 0 0 128 128;" xml:space="preserve">
<style type="text/css">
	.st0{display:none;}
	.st1{display:inline;fill:#231F20;}
	.st2{display:inline;fill-rule:evenodd;clip-rule:evenodd;fill:#231F20;}
	.st3{display:none;fill:#231F20;}
	.st4{fill:#231F20;}
</style>
<g id="row3" class="st0">
	<path id="icon:5_2_" class="st1" d="M29,64v20h70V64H29z M95.7,80.7H78.2V67.3h17.5V80.7z M0,6.1v115.8h128V6.1H0z M49.1,21.3
		c0,2.8-2.3,5.1-5.1,5.1c-2.8,0-5.1-2.3-5.1-5.1s2.3-5.1,5.1-5.1C46.8,16.3,49.1,18.5,49.1,21.3z M34.9,21.3c0,2.8-2.3,5.1-5.1,5.1
		s-5.1-2.3-5.1-5.1s2.3-5.1,5.1-5.1S34.9,18.5,34.9,21.3z M20.7,21.3c0,2.8-2.3,5.1-5.1,5.1s-5.1-2.3-5.1-5.1s2.3-5.1,5.1-5.1
		S20.7,18.5,20.7,21.3z M121.9,115.8H6.1V35.6h115.8V115.8z"/>
	<path id="icon:4_2_" class="st2" d="M109.9,53.8c0-3.6-12.6-5.5-13.5-8.8c-0.9-3.4,9-11.3,7.3-14.4c-1.8-3-13.6,1.6-16.1-0.8
		c-2.5-2.5,2.2-14.3-0.8-16.1c-3-1.7-10.9,8.2-14.4,7.3c-3.3-0.9-5.2-13.5-8.8-13.5c-3.6,0-5.5,12.6-8.8,13.5
		c-3.4,0.9-11.4-9-14.4-7.3c-3,1.8,1.6,13.6-0.8,16.1c-2.5,2.5-14.3-2.2-16.1,0.8c-1.7,3,8.2,10.9,7.3,14.4
		c-0.9,3.3-13.5,5.2-13.5,8.8c0,3.6,12.6,5.5,13.5,8.8c0.9,3.4-9,11.3-7.3,14.3c0.3,0.5,0.8,0.8,1.5,0.9c3.8,0.8,12.5-2.2,14.6-0.1
		c2.5,2.5-2.2,14.3,0.8,16.1c1.4,0.8,4-1,6.6-3.1c2.9-2.2,5.9-4.7,7.7-4.3c3.3,0.9,5.2,13.5,8.8,13.5c3.6,0,5.5-12.6,8.8-13.5
		c2.3-0.6,6.5,3.6,10,6c1.8,1.2,3.3,1.9,4.3,1.4c3-1.8-1.6-13.6,0.8-16.1c2.2-2.2,11.6,1.2,15,0c0.5-0.2,0.8-0.4,1.1-0.8
		c1.7-3-8.2-10.9-7.3-14.3C97.3,59.2,109.9,57.4,109.9,53.8z M63.7,85.8c-17.7,0-32-14.3-32-32c0-17.7,14.3-32,32-32s32,14.3,32,32
		C95.7,71.4,81.4,85.8,63.7,85.8z M88.8,53.8c0,13.9-11.3,25.1-25.1,25.1S38.6,67.6,38.6,53.8c0-13.9,11.3-25.1,25.1-25.1
		S88.8,39.9,88.8,53.8z M42.6,95.4l-25.1,25.1l-3.9-13.6L0,103l20.5-20.6c3.8,0.8,12.5-2.2,14.6-0.1c2.5,2.5-2.2,14.3,0.8,16.1
		C37.4,99.3,39.9,97.4,42.6,95.4z M128,103l-13.6,3.9l-3.9,13.6L87.1,97.1c1.8,1.2,3.3,1.9,4.3,1.4c3-1.8-1.6-13.6,0.8-16.1
		c2.2-2.2,11.6,1.2,15,0L128,103z"/>
	<path id="icon:3_2_" class="st2" d="M39.7,60.2L0,99.3V28.4L39.7,60.2z M4.8,24.6L64,72.1l59.2-47.5H4.8z M83.6,64L64,79.7L44.4,64
		L4.2,103.4h119.5L83.6,64z M88.3,60.2L128,99.3V28.4L88.3,60.2z"/>
	<path id="icon:2_2_" class="st2" d="M38.4,63.3c0,0,9.2-6.6,15.3-15.7c5.9-8.7,8.8-15.2,8.8-15.2s2.5-8.5,0.6-17.7
		c-1-5,4.3-8,10.7-5.9c5.1,1.6,7.5,13,7.9,15.9c1.9,14.2-4.5,28.9-4.5,28.9H115c0,0,13.4-0.3,13,8.2c-0.5,9.8-16.3,9.4-16.3,9.4
		s10.5,1.4,10.5,8.8c-0.1,7.4-12.8,9.2-12.8,9.2s9.2,1.7,8.6,7.6c-0.6,5.5-11.4,7.4-11.4,7.4s6.7,1.8,5.7,8.1
		c-0.8,4.9-8.2,4.6-8.2,4.6l-65.5-0.1V63.3z M35.8,60.6v59.3H5.2L0,60.6H35.8z M26.9,107.5c0-3-2.4-5.4-5.4-5.4
		c-3,0-5.4,2.4-5.4,5.4c0,3,2.4,5.4,5.4,5.4C24.5,113,26.9,110.5,26.9,107.5z"/>
	<path id="icon:1_2_" class="st1" d="M115.4,128H12.6V0h102.8V128z M17.9,122.6h92.1V5.4H17.9V122.6z M66,27.4
		c-1.2-6.3-6.7-11.1-13.4-11.1C45.1,16.3,39,22.5,39,30c0,7.5,6.1,13.7,13.6,13.7c6.6,0,12.2-4.8,13.4-11.1h28.5V18.9h-5.1v8.5h-2.8
		v-8.5h-5.1v8.5H66z M52.6,38.5c-4.7,0-8.5-3.8-8.5-8.5c0-4.7,3.8-8.5,8.5-8.5s8.5,3.8,8.5,8.5C61.1,34.7,57.3,38.5,52.6,38.5z
		 M101.3,55.7H24.9v3.6h76.4V55.7z M101.3,66.4H24.9V70h76.4V66.4z M101.3,77.1H24.9v3.6h76.4V77.1z M101.3,87.9H24.9v3.6h76.4V87.9
		z M101.3,98.6H24.9v3.6h76.4V98.6z M101.3,109.3H24.9v3.6h76.4V109.3z"/>
</g>
<g id="row2" class="st0">
	<path id="icon:5_1_" class="st1" d="M64,0C37.8,0,16.5,21.3,16.5,47.5c0,12,4.5,23,11.9,31.4L63.8,128l35.9-49.3
		c7.3-8.4,11.8-19.3,11.8-31.2C111.5,21.3,90.2,0,64,0z M64,7.1c22.2,0,40.3,18.1,40.3,40.3S86.2,87.8,64,87.8S23.7,69.7,23.7,47.5
		S41.8,7.1,64,7.1z M55.7,73.4L40.3,45.7l8.3-4.6L56,54.4c6.7-10,20.3-27.3,34.9-30l1.7,9.3C79.4,36.2,64.5,57.9,59.8,66L55.7,73.4z
		"/>
	<path id="icon:4_1_" class="st1" d="M90.3,76.4c-3.9-3.9-8.6-3-12.6,1c-4,4-6,8.7-1.6,13.2c4.3,4.3,9.2,2.4,13.2-1.6
		C93.2,85,94.2,80.2,90.3,76.4z M90.3,76.4c-3.9-3.9-8.6-3-12.6,1c-4,4-6,8.7-1.6,13.2c4.3,4.3,9.2,2.4,13.2-1.6
		C93.2,85,94.2,80.2,90.3,76.4z M125.6,76.3L55.4,6.1c-1.7-1.7-4-2.8-6.5-3L8.5,0C3.6-0.4-0.4,3.6,0,8.5l3.1,40.4
		c0.2,2.4,1.2,4.7,3,6.5l70.2,70.2c3.2,3.2,8.3,3.2,11.4,0.1l38-38C128.8,84.6,128.8,79.5,125.6,76.3z M8.8,16.1c-2-2-2-5.2,0-7.2
		s5.2-2,7.2,0s2,5.2,0,7.2S10.8,18.1,8.8,16.1z M30.7,52.8c-6-6-5.7-11.7-3.5-14c1.2-1.2,2.8-1.1,4,0c2.6,2.6-1.9,5.7,3,10.5
		c2.5,2.5,5.2,2.5,6.6,1.1c0.8-0.8,1.4-2.2,0.1-4.2l-4-6.7c-3.2-5.4-1.6-8.6,0.6-10.8c4.6-4.6,10.7-2.1,14.7,1.9
		c3.7,3.7,6,10.2,3.2,13c-1.2,1.2-2.9,0.9-4.1-0.3c-2.2-2.2,1.3-4.9-3.1-9.3c-2.2-2.2-4.4-2.4-5.9-1c-1.4,1.4-0.2,3.7,1,5.5l3.1,4.9
		c3.4,5.3,1.9,9-0.6,11.5C42.1,58.6,36.4,58.6,30.7,52.8z M57.5,78.7L46.1,67.3c-1.7-1.7-2.1-3.5,0-5.6l15.3-15.3
		c2.1-2.1,3.9-1.7,5.6,0l11.2,11.2c1.4,1.4,2,2.8,0.5,4.3c-1.5,1.5-2.9,0.9-4.3-0.5l-9.2-9.2l-4.5,4.5l8.1,8.1
		c1.2,1.2,1.9,2.6,0.4,4.1s-2.8,0.8-4.1-0.4L57,60.4l-5,5l9.4,9.4c1.4,1.4,2,2.8,0.5,4.3S58.9,80.1,57.5,78.7z M72.2,94.4
		c-7.5-7.5-5.7-15.4,0.6-21.7c6.1-6.1,14.4-7,21.2-0.1c6.8,6.8,6,15.1-0.1,21.2C88.1,99.6,79.4,101.5,72.2,94.4z M90.3,76.4
		c-3.9-3.9-8.6-3-12.6,1c-4,4-6,8.7-1.6,13.2c4.3,4.3,9.2,2.4,13.2-1.6C93.2,85,94.2,80.2,90.3,76.4z"/>
	<path id="icon:3_1_" class="st1" d="M128,95c0,6.4-5.2,11.6-11.6,11.6c-6.4,0-11.6-5.2-11.6-11.6c0-0.5,0-1,0.1-1.4l-27-10.1
		C74.5,89.8,67.9,94,60.3,94c-6.8,0-12.7-3.4-16.3-8.6L22.9,96.2c0.2,0.9,0.3,1.8,0.3,2.7c0,6.4-5.2,11.6-11.6,11.6
		C5.2,110.5,0,105.3,0,98.9s5.2-11.6,11.7-11.6c3.6,0,6.8,1.6,8.9,4.1l21.1-10.7c-0.7-2-1.1-4.3-1.1-6.5c0-5.3,2.1-10.2,5.5-13.7
		L29.5,39.6c-1.5,0.7-3.2,1.1-4.9,1.1c-6.4,0-11.6-5.2-11.6-11.6s5.2-11.6,11.6-11.6c6.4,0,11.7,5.2,11.7,11.6
		c0,2.7-0.9,5.2-2.5,7.2l16.5,20.8c3-1.8,6.4-2.8,10.1-2.8c4.4,0,8.4,1.4,11.7,3.8l21.7-22.7c-1.2-1.8-1.9-4-1.9-6.3
		c0-6.4,5.2-11.6,11.6-11.6c6.4,0,11.6,5.2,11.6,11.6s-5.2,11.6-11.6,11.6c-2.1,0-4.1-0.6-5.9-1.6L75.9,61.8
		c2.7,3.4,4.3,7.7,4.3,12.4c0,1.5-0.2,3-0.5,4.4l27,10.1c2.1-3.1,5.6-5.2,9.7-5.2C122.8,83.4,128,88.6,128,95z"/>
	<polygon id="icon:2_1_" class="st1" points="128,104.9 128,112 0,112 0,16 7,16 7,104.9 19.7,104.9 19.7,54.3 42.4,54.3 
		42.4,104.9 47.7,104.9 47.7,43.7 70.5,43.7 70.5,104.9 75.7,104.9 75.7,64.4 98.5,64.4 98.5,104.9 	"/>
	<path id="icon:1_3_" class="st1" d="M0,6.1v115.8h128V6.1H0z M49.1,21.3c0,2.8-2.3,5.1-5.1,5.1c-2.8,0-5.1-2.3-5.1-5.1
		s2.3-5.1,5.1-5.1C46.8,16.3,49.1,18.5,49.1,21.3z M34.9,21.3c0,2.8-2.3,5.1-5.1,5.1s-5.1-2.3-5.1-5.1s2.3-5.1,5.1-5.1
		S34.9,18.5,34.9,21.3z M20.7,21.3c0,2.8-2.3,5.1-5.1,5.1s-5.1-2.3-5.1-5.1s2.3-5.1,5.1-5.1S20.7,18.5,20.7,21.3z M121.9,115.8H6.1
		V35.6h115.8V115.8z M94.8,80.5V70.1h-7.9c-0.6-2.7-1.7-5.3-3.1-7.6l5.6-5.6l-7.4-7.4l-5.6,5.6c-2.3-1.5-4.9-2.6-7.6-3.2v-7.9H58.3
		V52c-2.7,0.6-5.3,1.7-7.6,3.2l-5.6-5.6l-7.4,7.4l5.6,5.6c-1.5,2.3-2.5,4.9-3.1,7.6h-7.9v10.4h8c0.6,2.7,1.7,5.3,3.1,7.5l-5.6,5.6
		l7.4,7.4l5.7-5.7c2.3,1.5,4.8,2.5,7.5,3.1v8h10.4v-8c2.7-0.6,5.3-1.7,7.5-3.1l5.7,5.7l7.4-7.4l-5.6-5.6c1.5-2.3,2.5-4.8,3.1-7.6
		H94.8z M74.6,79c-0.2,0.5-0.4,1-0.6,1.5c-1.1,2.3-3,4.1-5.3,5.2c-0.5,0.2-1,0.5-1.5,0.6c-1.2,0.4-2.4,0.6-3.7,0.6s-2.5-0.2-3.7-0.6
		c-0.5-0.2-1-0.4-1.5-0.6c-2.3-1.1-4.1-3-5.3-5.2c-0.2-0.5-0.5-1-0.6-1.5c-0.4-1.2-0.6-2.5-0.6-3.8c0-1.3,0.2-2.5,0.6-3.7
		c0.2-0.5,0.4-1,0.6-1.4c1.1-2.3,3-4.2,5.3-5.3c0.5-0.2,0.9-0.4,1.4-0.6c1.2-0.4,2.5-0.6,3.8-0.6c1.3,0,2.6,0.2,3.8,0.6
		c0.5,0.2,1,0.4,1.4,0.6c2.3,1.1,4.2,3,5.3,5.3c0.2,0.5,0.4,1,0.6,1.5c0.4,1.2,0.6,2.4,0.6,3.7C75.2,76.6,75,77.9,74.6,79z"/>
</g>
<g id="row1">
	<path id="icon:5" class="st3" d="M117.8,96.1c0,0,0-2,0-3.1V31.3c0-4.2-3.4-7.7-7.7-7.7H19.9c-4.2,0-7.7,3.4-7.7,7.7v61.6l0,3.1H0
		v8.3h128v-8.3H117.8z M17.3,31.3c0-1.4,1.2-2.6,2.6-2.6h90.2c1.4,0,2.6,1.1,2.6,2.6v61.6c0,1.4-1.1,2.6-2.6,2.6H19.9
		c-1.4,0-2.6-1.2-2.6-2.6V31.3z M107.5,75c0,3-2.4,5.4-5.4,5.4S96.6,78,96.6,75c0-0.7,0.1-1.4,0.4-2L81.7,59.4
		c-0.9,0.7-2,1.1-3.2,1.1c-0.7,0-1.3-0.1-1.9-0.3l-7.7,9c0.3,0.7,0.5,1.4,0.5,2.2c0,3-2.4,5.4-5.4,5.4s-5.4-2.4-5.4-5.4
		c0-0.2,0-0.4,0.1-0.6L36.4,55.8c-0.9,0.7-2,1.1-3.2,1.1c-3,0-5.4-2.4-5.4-5.4c0-3,2.4-5.4,5.4-5.4s5.4,2.4,5.4,5.4
		c0,0.5-0.1,0.9-0.2,1.4l21.8,14.7c1-0.9,2.3-1.5,3.8-1.5c0.9,0,1.7,0.2,2.4,0.6l7.4-8.7c-0.5-0.8-0.8-1.8-0.8-2.8
		c0-3,2.4-5.4,5.4-5.4c3,0,5.4,2.4,5.4,5.4c0,0.5-0.1,0.9-0.2,1.4l15.6,13.8c0.8-0.4,1.7-0.7,2.6-0.7C105,69.6,107.5,72,107.5,75z"
		/>
	<path id="icon:4" class="st4" d="M81,57.4c-1.6-4.1-4.1-7.7-7.3-10.5c0,0,0,0-0.1-0.1c-7.3-6.5-18-8.7-27.8-4.9L17.3,53
		C3.4,58.5-3.6,74.2,1.8,88.2c2.6,6.7,7.7,12.1,14.4,15c3.5,1.5,7.2,2.3,11,2.3c3.3,0,6.6-0.6,9.8-1.9l26.9-10.5
		c-3.8-1-7.4-2.6-10.7-4.9l-19.3,7.5c-4.6,1.8-9.7,1.7-14.3-0.3c-4.6-2-8.1-5.7-9.9-10.3c-3.7-9.6,1-20.5,10.7-24.2l28.6-11.1
		c2.2-0.9,4.5-1.3,6.7-1.3c2.6,0,5.1,0.5,7.6,1.6c4.6,2,8.1,5.7,9.9,10.3c1.6,4.1,1.7,8.5,0.3,12.7c1.1-0.1,2.3-0.4,3.3-0.8l5.9-2.3
		C83.2,65.9,82.6,61.6,81,57.4z M74.3,87.2c-3.7,0-7.4-0.8-11-2.3c-6.7-2.9-11.8-8.2-14.4-15c-1.3-3.4-1.9-7-1.8-10.6l8.4,0.3
		c-0.1,2.5,0.3,4.9,1.3,7.3c1.8,4.6,5.3,8.3,9.9,10.3c4.6,2,9.7,2.1,14.3,0.3l26.6-10.3c4.6-1.8,8.3-5.3,10.3-9.9
		c2-4.6,2.1-9.7,0.3-14.3c-3.7-9.6-14.6-14.4-24.2-10.7l-20.7,8.1l-3.1-7.9L91,24.4c13.9-5.4,29.7,1.5,35.1,15.5
		c2.6,6.7,2.4,14.1-0.5,20.8c-2.9,6.7-8.2,11.8-15,14.4L84.1,85.3C80.9,86.5,77.6,87.2,74.3,87.2z"/>
	<path id="icon:3" class="st3" d="M117.1,30.7l1.5-13l-17.1,8l-2.3,10.5l-11.8,5.6c-7.9-14.5-23.2-24.3-40.8-24.3
		C20.8,17.5,0,38.4,0,64c0,25.6,20.8,46.5,46.5,46.5S93,89.6,93,64c0-6.2-1.2-12.1-3.4-17.6l11.8-5.6l9.6,5l17.1-8L117.1,30.7z
		 M46.5,103.6C24.6,103.6,6.9,85.9,6.9,64s17.8-39.6,39.6-39.6c14.9,0,27.9,8.2,34.6,20.4l-5.3,2.5c-5.8-10.2-16.8-17-29.3-17
		c-18.6,0-33.8,15.2-33.8,33.8s15.2,33.8,33.8,33.8S80.3,82.6,80.3,64c0-4.3-0.8-8.3-2.3-12.1l5.3-2.5c1.8,4.5,2.8,9.5,2.8,14.6
		C86.1,85.9,68.3,103.6,46.5,103.6z M67.3,64c0,11.5-9.3,20.8-20.8,20.8S25.7,75.5,25.7,64S35,43.2,46.5,43.2
		c7.3,0,13.8,3.8,17.5,9.6l-10.5,5c-1.7-1.9-4.2-3.2-7-3.2c-5.1,0-9.3,4.2-9.3,9.3s4.2,9.3,9.3,9.3s9.3-4.2,9.3-9.3
		c0-0.5,0-1-0.1-1.5l10.6-5C66.9,59.5,67.3,61.7,67.3,64z M46.5,39.8c-13.4,0-24.2,10.9-24.2,24.2s10.9,24.2,24.2,24.2
		S70.7,77.4,70.7,64c0-2.8-0.5-5.5-1.4-8.1l5.5-2.6c1.3,3.3,1.9,6.9,1.9,10.7c0,16.7-13.6,30.3-30.3,30.3S16.1,80.7,16.1,64
		s13.6-30.3,30.3-30.3c11.2,0,20.9,6.1,26.2,15.1l-5.5,2.6C62.9,44.4,55.2,39.8,46.5,39.8z"/>
	<path id="icon:2" class="st3" d="M47.3,34v28.1c0,2.8-2.3,5.1-5.1,5.1H21.7c-2.8,0-5.1-2.3-5.1-5.1V34c0-2.8,2.3-5.1,5.1-5.1h20.4
		C45,28.9,47.3,31.2,47.3,34z M0,48.1c0,8.5,5.7,15.3,12.8,15.3V32.8C5.7,32.8,0,39.6,0,48.1z M52.2,65l56.7,31.6v-92L52.2,30.5V65z
		 M120.7,36.3c-0.1,0-0.3,0-0.4,0.1V2.1h-7.7v97.1h7.7V67.9c0.1,0.1,0.3,0.1,0.4,0.1c4,0,7.3-7.1,7.3-15.9
		C128,43.4,124.7,36.3,120.7,36.3z M24.7,105.1c0,19,29.3,30.6,21.7,9.5s0-42.3,0-42.3H19.2C19.2,72.3,24.7,86.2,24.7,105.1z"/>
	<path id="icon:1" class="st3" d="M115,75.7c18.5-18.5,17.2-49.3-3.7-66.1C94.9-3.5,71-3.1,55.1,10.4c-18.8,15.9-20.8,43.5-5.9,61.8
		L37.8,83.6l-3.3-3.3L2.7,112c-3.6,3.6-3.6,9.6,0,13.2l0,0c3.6,3.6,9.6,3.6,13.2,0l31.8-31.8l-3.3-3.3l11.3-11.3
		C73.2,92.9,98.8,91.9,115,75.7z M58.9,19.6c13.7-13.7,35.9-13.7,49.5,0s13.7,35.9,0,49.5c-13.7,13.7-35.9,13.7-49.5,0
		S45.2,33.2,58.9,19.6z"/>
</g>
</svg>
